<svg width="52" height="40" viewBox="0 0 52 40" fill="none" xmlns="http://www.w3.org/2000/svg">
<path d="M25.1025 0.5V12.5117C25.1025 15.7832 24.4434 19.1279 23.125 22.5459C21.8555 25.9639 20.1953 29.1865 18.1445 32.2139C16.1426 35.1924 13.9941 37.707 11.6992 39.7578L0.859375 33.8984C2.42188 31.1152 3.83789 28.0391 5.10742 24.6699C6.42578 21.252 7.08496 17.1748 7.08496 12.4385V0.5H25.1025ZM51.6162 0.5V12.5117C51.6162 15.7832 50.957 19.1279 49.6387 22.5459C48.3691 25.9639 46.709 29.1865 44.6582 32.2139C42.6562 35.1924 40.5078 37.707 38.2129 39.7578L27.373 33.8984C28.9355 31.1152 30.3516 28.0391 31.6211 24.6699C32.9395 21.252 33.5986 17.1748 33.5986 12.4385V0.5H51.6162Z" fill="#00ACB1"/>
</svg>
