<svg width="179" height="58" viewBox="0 0 179 58" fill="none" xmlns="http://www.w3.org/2000/svg">
    <path
        d="M29.5122 35.5835C29.5122 38.7262 28.1938 41.1593 25.6584 42.9841C23.123 44.7075 19.6748 45.6199 15.4153 45.6199C13.4884 45.6199 11.5615 45.4172 9.43174 45.113C7.40341 44.8089 5.4765 44.302 3.85383 43.6937C2.12975 43.0855 0.912749 42.4772 0 41.8689L2.63683 37.2056C3.95525 38.0166 5.67933 38.7262 8.01191 39.3345C10.2431 39.9428 12.6771 40.2469 15.1111 40.2469C19.8777 40.2469 22.3116 39.0304 22.3116 36.5973C22.3116 34.5698 20.3847 33.2518 16.4295 32.745L10.2431 31.9339C7.20058 31.5284 4.76658 30.616 3.14391 29.0954C1.52125 27.6761 0.6085 25.6485 0.6085 23.0127C0.6085 19.87 1.8255 17.4369 4.36091 15.8149C6.79491 14.1929 10.4459 13.3818 15.1111 13.3818C17.5451 13.3818 19.7762 13.5846 21.7031 14.0915C23.6301 14.497 25.1513 15.1053 26.1655 15.9163C27.2811 16.6259 27.7881 17.5383 27.7881 18.4507C27.7881 19.059 27.5853 19.6672 27.1796 20.3769C26.774 20.9852 26.2669 21.492 25.6584 21.7962C25.1513 21.2893 24.2386 20.7824 23.0216 20.2755C21.8046 19.7686 20.3847 19.4645 18.8635 19.1604C17.3422 18.8562 15.821 18.7548 14.1983 18.7548C12.0686 18.7548 10.3445 19.059 9.12749 19.6672C7.91049 20.2755 7.30199 21.1879 7.30199 22.4044C7.30199 23.3168 7.70766 24.1279 8.51899 24.6348C9.33033 25.243 10.6487 25.6485 12.4742 25.8513L18.6607 26.6623C25.9626 27.5747 29.5122 30.616 29.5122 35.5835Z"
        fill="white" />
    <path
        d="M64.9061 41.565C64.9061 46.8366 63.5877 50.7904 60.8495 53.5276C58.0098 56.2648 54.0546 57.5827 48.8823 57.5827C46.7526 57.5827 44.6228 57.3799 42.2902 56.9744C40.0591 56.5689 38.1321 56.062 36.5095 55.4537L38.2336 50.2835C38.9435 50.5876 39.8562 50.8917 41.0732 51.1959C42.1888 51.5 43.4058 51.7028 44.6228 51.8041C45.8398 51.9055 47.0568 52.0069 48.1724 52.0069C51.4177 52.0069 53.9531 51.2973 55.6772 49.7766C57.4013 48.2559 58.314 45.9242 58.314 42.7815V41.0581C57.5027 42.2746 56.2857 43.187 54.663 43.8967C53.0404 44.6063 51.0121 45.0118 48.7809 45.0118C46.1441 45.0118 43.8115 44.505 41.7831 43.4912C39.7548 42.4774 38.1321 41.0581 37.0166 39.2333C35.901 37.4085 35.2925 35.1782 35.2925 32.6438V17.5385C35.2925 16.5247 35.5967 15.7137 36.3066 15.1055C37.0166 14.5986 37.8279 14.2944 38.9435 14.2944C39.552 14.2944 40.0591 14.3958 40.6676 14.4972C41.2761 14.5986 41.7831 14.8013 42.1888 15.0041V31.2245C42.1888 33.7589 42.8987 35.6851 44.2171 37.003C45.637 38.3209 47.5639 39.0306 49.9979 39.0306C52.6347 39.0306 54.5616 38.3209 55.9815 36.8003C57.2999 35.2796 58.0098 33.252 58.0098 30.5148V17.5385C58.0098 16.5247 58.3141 15.7137 59.024 15.1055C59.7339 14.5986 60.5452 14.2944 61.6608 14.2944C62.2693 14.2944 62.7764 14.3958 63.3849 14.4972C63.9934 14.5986 64.5005 14.8013 64.9061 15.0041V41.565Z"
        fill="white" />
    <path
        d="M72.0059 26.3582C72.0059 23.7224 72.6144 21.492 73.8314 19.5659C75.0484 17.6397 76.7724 16.119 79.0036 15.0039C81.2348 13.8887 83.8716 13.3818 86.8127 13.3818C89.8552 13.3818 92.3906 13.8887 94.6218 15.0039C96.8529 16.119 98.577 17.5383 99.794 19.5659C101.011 21.492 101.62 23.8237 101.62 26.3582V44.8089H94.7232V28.183C94.7232 25.4458 94.0133 23.3168 92.6948 21.8976C91.3764 20.4783 89.3481 19.7686 86.8127 19.7686C81.539 19.7686 78.9022 22.6072 78.9022 28.183V44.8089H72.0059V26.3582Z"
        fill="white" />
    <path
        d="M140.259 28.0816C140.259 31.7312 139.752 34.8739 138.434 37.5097C137.115 40.1455 135.29 42.1731 132.856 43.5924C130.422 45.0117 127.582 45.7213 124.337 45.7213C120.99 45.7213 118.049 45.0116 115.615 43.6937C113.08 42.2745 111.153 40.4497 109.733 38.0166C108.313 35.5835 107.603 32.8463 107.603 29.7036C107.603 26.5609 108.313 23.8237 109.631 21.3907C111.051 18.9576 112.877 17.0314 115.209 15.7135C117.542 14.2942 120.179 13.5846 123.12 13.5846C125.351 13.5846 127.379 13.9901 129.103 14.8011C130.827 15.6121 132.349 16.8287 133.464 18.248V3.24408C133.464 2.23031 133.769 1.41929 134.478 0.81102C135.188 0.304132 136.101 0 137.115 0C137.724 0 138.231 0.101376 138.839 0.202754C139.448 0.304132 139.955 0.506887 140.259 0.709642V28.0816ZM117.339 22.3031C115.615 24.1279 114.702 26.5609 114.702 29.5009C114.702 32.4408 115.615 34.8739 117.339 36.6987C119.063 38.5235 121.294 39.4359 124.033 39.4359C126.771 39.4359 129.002 38.5235 130.827 36.6987C132.552 34.8739 133.464 32.4408 133.464 29.5009C133.464 26.5609 132.552 24.1279 130.827 22.3031C129.103 20.4783 126.771 19.5659 124.033 19.5659C121.396 19.5659 119.165 20.4783 117.339 22.3031Z"
        fill="white" />
    <path
        d="M147.764 37.814C146.243 35.381 145.533 32.6438 145.533 29.6024C145.533 26.5611 146.243 23.8239 147.764 21.3909C149.285 18.9578 151.212 17.0316 153.747 15.6123C156.283 14.193 159.123 13.4834 162.266 13.4834C165.41 13.4834 168.25 14.193 170.785 15.6123C173.321 17.0316 175.349 18.9578 176.769 21.3909C178.189 23.8239 179 26.5611 179 29.6024C179 32.6438 178.29 35.381 176.769 37.814C175.349 40.2471 173.321 42.1733 170.785 43.5925C168.25 45.0118 165.41 45.7215 162.266 45.7215C159.123 45.7215 156.283 45.0118 153.747 43.5925C151.313 42.1733 149.285 40.1457 147.764 37.814ZM170.583 34.7727C171.394 33.252 171.8 31.5286 171.8 29.6024C171.8 27.6763 171.394 25.9528 170.583 24.4322C169.771 22.9115 168.656 21.695 167.236 20.884C165.816 20.0729 164.193 19.5661 162.368 19.5661C160.542 19.5661 158.92 19.9716 157.5 20.884C156.08 21.695 154.964 22.9115 154.153 24.4322C153.342 25.9528 152.936 27.6763 152.936 29.6024C152.936 31.5286 153.342 33.252 154.153 34.7727C154.964 36.2934 156.08 37.5099 157.5 38.3209C158.92 39.1319 160.542 39.6388 162.368 39.6388C164.193 39.6388 165.816 39.2333 167.236 38.3209C168.656 37.4085 169.771 36.2934 170.583 34.7727Z"
        fill="#00ACB1" />
</svg>
    